<?xml version="1.0" encoding="utf-8"?>
<!-- Generator: Adobe Illustrator 15.0.0, SVG Export Plug-In . SVG Version: 6.00 Build 0)  -->
<!DOCTYPE svg PUBLIC "-//W3C//DTD SVG 1.1//EN" "http://www.w3.org/Graphics/SVG/1.1/DTD/svg11.dtd">
<svg version="1.1" id="Layer_1" xmlns="http://www.w3.org/2000/svg" xmlns:xlink="http://www.w3.org/1999/xlink" x="0px" y="0px"
	 width="100%" height="100%" viewBox="0 0 54.858 54.857" enable-background="new 0 0 54.858 54.857" xml:space="preserve">
<text transform="matrix(1 0 0 1 24.5366 30.9497)" opacity="0" font-family="'MyriadPro-Regular'" font-size="12">a</text>
<g>
	<circle opacity="0.3" fill="#010202" cx="27.429" cy="27.428" r="26.929"/>
	<circle fill="none" stroke="#020304" stroke-miterlimit="10" cx="27.429" cy="27.428" r="26.929"/>
</g>
<g>
	<path fill="#878787" d="M27.43,24.167c-1.824,0-3.303,1.479-3.303,3.302s1.479,3.302,3.303,3.302c1.823,0,3.302-1.479,3.302-3.302
		S29.253,24.167,27.43,24.167z"/>
	<g>
		<path fill="#878787" d="M33.243,27.476c0,2.083-0.969,3.905-2.413,4.92l0.398,0.793c1.682-1.172,2.812-3.291,2.812-5.713
			c0-2.488-1.189-4.658-2.947-5.809l-0.398,0.793C32.214,23.452,33.243,25.327,33.243,27.476z"/>
		<path fill="#878787" d="M21.614,27.476c0-2.178,1.056-4.076,2.609-5.058l-0.397-0.793c-1.792,1.141-3.009,3.334-3.009,5.852
			c0,2.45,1.157,4.592,2.873,5.756l0.398-0.793C22.61,31.434,21.614,29.588,21.614,27.476z"/>
	</g>
	<g>
		<path fill="#878787" d="M35.503,27.476c0,2.704-1.264,5.069-3.145,6.375l0.398,0.793c2.118-1.464,3.544-4.125,3.544-7.168
			c0-3.109-1.485-5.821-3.681-7.263l-0.397,0.792C34.179,22.29,35.503,24.707,35.503,27.476z"/>
		<path fill="#878787" d="M19.355,27.476c0-2.799,1.351-5.239,3.341-6.513l-0.398-0.793c-2.229,1.432-3.741,4.168-3.741,7.306
			c0,3.072,1.453,5.754,3.604,7.211l0.398-0.794C20.646,32.597,19.355,30.209,19.355,27.476z"/>
	</g>
	<g>
		<path fill="#878787" d="M17.095,27.476c0-3.42,1.646-6.403,4.073-7.966l-0.399-0.792c-2.665,1.723-4.472,5-4.472,8.759
			c0,3.693,1.747,6.918,4.336,8.663l0.398-0.792C18.681,33.76,17.095,30.83,17.095,27.476z"/>
		<path fill="#878787" d="M37.763,27.476c0,3.325-1.56,6.232-3.877,7.829l0.398,0.793c2.556-1.755,4.276-4.958,4.276-8.622
			c0-3.73-1.78-6.984-4.412-8.718l-0.398,0.793C36.144,21.125,37.763,24.085,37.763,27.476z"/>
	</g>
</g>
</svg>
