<?xml version="1.0" encoding="utf-8"?>
<!-- Generator: Adobe Illustrator 15.0.0, SVG Export Plug-In . SVG Version: 6.00 Build 0)  -->
<!DOCTYPE svg PUBLIC "-//W3C//DTD SVG 1.1//EN" "http://www.w3.org/Graphics/SVG/1.1/DTD/svg11.dtd">
<svg version="1.1" id="Layer_1" xmlns="http://www.w3.org/2000/svg" xmlns:xlink="http://www.w3.org/1999/xlink" x="0px" y="0px"
	 width="100%" height="100%" viewBox="0 0 54.858 54.857" enable-background="new 0 0 54.858 54.857" xml:space="preserve">
<text transform="matrix(1 0 0 1 24.5366 30.9497)" opacity="0" font-family="'MyriadPro-Regular'" font-size="12">a</text>
<g>
	<g>
		<circle opacity="0.05" fill="#64B32E" cx="27.429" cy="27.428" r="26.929"/>
		<circle fill="none" stroke="#020304" stroke-miterlimit="10" cx="27.429" cy="27.428" r="26.929"/>
	</g>
	<path fill="#64B32E" d="M24.824,39.222c-2.335,0-4.418-1.732-4.418-3.86c0-2.13,1.807-3.861,4.142-3.861
		c1.178,0,2.615,0.454,3.415,1.245l0.466,0.161V16.12c0-0.171-0.243-0.338-0.08-0.424c0.069-0.037-0.026-0.056,0.056-0.056
		c0.1,0,0.111,0.029,0.19,0.083l5.986,4.106c0.104,0.071,0.153,0.179,0.175,0.303c0.024,0.127-0.013,0.255-0.085,0.363
		c-0.09,0.131-0.245,0.209-0.407,0.209c-0.099,0,0.175-0.028,0.095-0.083l-4.93-3.596V19.1l5.465,4.013
		c0.224,0.152,0.1,0.451-0.045,0.666c-0.09,0.131-0.332,0.209-0.493,0.209c-0.1,0,0.127-0.029,0.047-0.083l-4.974-3.596v2.075
		l5.465,4.013c0.224,0.152,0.1,0.451-0.045,0.666c-0.09,0.131-0.332,0.209-0.493,0.209c-0.1,0,0.127-0.03,0.047-0.083l-4.974-3.596
		c0,0,0,11.703,0,11.768C29.429,37.49,27.159,39.222,24.824,39.222z"/>
</g>
</svg>
