<?xml version="1.0" encoding="utf-8"?>
<!-- Generator: Adobe Illustrator 15.0.0, SVG Export Plug-In . SVG Version: 6.00 Build 0)  -->
<!DOCTYPE svg PUBLIC "-//W3C//DTD SVG 1.1//EN" "http://www.w3.org/Graphics/SVG/1.1/DTD/svg11.dtd">
<svg version="1.1" id="Layer_1" xmlns="http://www.w3.org/2000/svg" xmlns:xlink="http://www.w3.org/1999/xlink" x="0px" y="0px"
	 width="100%" height="100%" viewBox="0 0 54.858 54.857" enable-background="new 0 0 54.858 54.857" xml:space="preserve">
<g>
	<circle opacity="0.05" fill="#CCD627" cx="27.429" cy="27.428" r="26.929"/>
	<circle fill="none" stroke="#020304" stroke-miterlimit="10" cx="27.429" cy="27.428" r="26.929"/>
</g>
<g>
	<path fill="#CCD627" d="M27.429,24.017c-1.908,0-3.455,1.546-3.455,3.454c0,1.908,1.547,3.455,3.455,3.455
		c1.908,0,3.455-1.547,3.455-3.455C30.884,25.563,29.337,24.017,27.429,24.017z"/>
	<g>
		<path fill="#CCD627" d="M33.511,27.478c0,2.179-1.014,4.087-2.525,5.146l0.418,0.83c1.76-1.227,2.941-3.443,2.941-5.977
			c0-2.603-1.244-4.872-3.084-6.076l-0.416,0.83C32.435,23.27,33.511,25.23,33.511,27.478z"/>
		<path fill="#CCD627" d="M21.346,27.478c0-2.278,1.104-4.264,2.729-5.291l-0.416-0.83c-1.875,1.193-3.147,3.488-3.147,6.121
			c0,2.563,1.21,4.804,3.005,6.021l0.417-0.83C22.388,31.618,21.346,29.688,21.346,27.478z"/>
	</g>
	<g>
		<path fill="#CCD627" d="M35.874,27.478c0,2.829-1.322,5.304-3.289,6.669l0.416,0.828c2.217-1.53,3.707-4.314,3.707-7.497
			c0-3.252-1.553-6.089-3.85-7.597l-0.416,0.829C34.489,22.053,35.874,24.581,35.874,27.478z"/>
		<path fill="#CCD627" d="M18.983,27.478c0-2.928,1.413-5.48,3.495-6.812l-0.417-0.83c-2.331,1.498-3.913,4.36-3.913,7.642
			c0,3.214,1.52,6.021,3.771,7.542l0.417-0.83C20.333,32.834,18.983,30.337,18.983,27.478z"/>
	</g>
	<g>
		<path fill="#CCD627" d="M16.619,27.478c0-3.577,1.722-6.697,4.261-8.333l-0.417-0.83c-2.788,1.803-4.678,5.231-4.678,9.163
			c0,3.862,1.827,7.237,4.536,9.063l0.417-0.83C18.278,34.051,16.619,30.987,16.619,27.478z"/>
		<path fill="#CCD627" d="M38.237,27.478c0,3.479-1.631,6.519-4.055,8.19l0.416,0.828c2.674-1.836,4.475-5.186,4.475-9.019
			c0-3.901-1.863-7.306-4.615-9.119l-0.418,0.83C36.544,20.836,38.237,23.931,38.237,27.478z"/>
	</g>
</g>
<text transform="matrix(1 0 0 1 24.5366 30.9497)" opacity="0" font-family="'MyriadPro-Regular'" font-size="12">a</text>
</svg>
