<?xml version="1.0" encoding="utf-8"?>
<!-- Generator: Adobe Illustrator 15.0.0, SVG Export Plug-In . SVG Version: 6.00 Build 0)  -->
<!DOCTYPE svg PUBLIC "-//W3C//DTD SVG 1.1//EN" "http://www.w3.org/Graphics/SVG/1.1/DTD/svg11.dtd">
<svg version="1.1" id="Layer_1" xmlns="http://www.w3.org/2000/svg" xmlns:xlink="http://www.w3.org/1999/xlink" x="0px" y="0px"
	 width="100%" height="100%" viewBox="0 0 54.858 54.857" enable-background="new 0 0 54.858 54.857" xml:space="preserve">
<text transform="matrix(1 0 0 1 24.5366 30.9497)" opacity="0" font-family="'MyriadPro-Regular'" font-size="12">a</text>
<g>
	<g>
		<circle opacity="0.05" fill="#16ABB3" cx="27.429" cy="27.428" r="26.929"/>
		<circle fill="none" stroke="#020304" stroke-miterlimit="10" cx="27.429" cy="27.428" r="26.929"/>
	</g>
	<path fill="#16ABB3" d="M38.127,15.545c0-0.295-0.237-0.532-0.532-0.532s-0.532,0.237-0.532,0.532c0,0.134,0.049,0.258,0.132,0.353
		l-7.928,15.29c-0.549-0.29-1.174-0.455-1.837-0.455c-0.665,0-1.289,0.165-1.839,0.455l-7.928-15.29
		c0.083-0.095,0.134-0.217,0.134-0.353c0-0.295-0.238-0.532-0.533-0.532s-0.532,0.237-0.532,0.532c0,0.288,0.226,0.519,0.509,0.532
		l7.958,15.346c-1.039,0.712-1.721,1.908-1.721,3.262c0,0.312,0.037,0.616,0.105,0.906h-1.496c-0.439,0-0.821,0.425-0.821,0.947v1.4
		c0,0.524,0.382,0.948,0.821,0.948h10.684c0.438,0,0.769-0.424,0.769-0.948v-1.4c0-0.522-0.33-0.947-0.769-0.947h-1.495
		c0.067-0.29,0.105-0.595,0.105-0.906c0-1.354-0.682-2.55-1.721-3.262l7.958-15.346C37.9,16.064,38.127,15.833,38.127,15.545z"/>
</g>
</svg>
