<?xml version="1.0" encoding="utf-8"?>
<!-- Generator: Adobe Illustrator 15.0.0, SVG Export Plug-In . SVG Version: 6.00 Build 0)  -->
<!DOCTYPE svg PUBLIC "-//W3C//DTD SVG 1.1//EN" "http://www.w3.org/Graphics/SVG/1.1/DTD/svg11.dtd">
<svg version="1.1" id="Layer_1" xmlns="http://www.w3.org/2000/svg" xmlns:xlink="http://www.w3.org/1999/xlink" x="0px" y="0px"
	 width="100%" height="100%" viewBox="0 0 54.858 54.857" enable-background="new 0 0 54.858 54.857" xml:space="preserve">
<text transform="matrix(1 0 0 1 24.5366 30.9497)" opacity="0" font-family="'MyriadPro-Regular'" font-size="12">a</text>
<g>
	<g>
		<circle opacity="0.3" fill="#010202" cx="27.429" cy="27.427" r="26.929"/>
		<circle fill="none" stroke="#020304" stroke-miterlimit="10" cx="27.429" cy="27.427" r="26.929"/>
	</g>
	<path fill="#878787" d="M24.727,39.218c-2.335,0-4.397-1.73-4.397-3.86s1.818-3.86,4.153-3.86c1.178,0,2.599,0.454,3.399,1.245
		l0.449,0.161V16.116c0-0.172-0.221-0.338-0.058-0.424c0.068-0.037-0.016-0.056,0.066-0.056c0.101,0,0.117,0.03,0.196,0.083
		l5.988,4.106c0.104,0.071,0.154,0.178,0.179,0.303c0.024,0.127-0.013,0.255-0.086,0.362c-0.09,0.131-0.244,0.209-0.407,0.209
		c-0.098,0,0.131-0.028,0.052-0.083l-4.975-3.596v2.074l5.51,4.013c0.223,0.152,0.123,0.451-0.023,0.666
		c-0.09,0.131-0.32,0.209-0.482,0.209c-0.1,0,0.087-0.029,0.009-0.082l-5.013-3.596v2.074l5.51,4.014
		c0.223,0.152,0.123,0.451-0.023,0.666c-0.09,0.131-0.32,0.209-0.482,0.209c-0.1,0,0.087-0.029,0.009-0.082l-5.013-3.596
		c0,0,0,11.703,0,11.768C29.287,37.488,27.062,39.218,24.727,39.218z"/>
</g>
</svg>
